<svg xmlns="http://www.w3.org/2000/svg" width="45.007" height="45.007" viewBox="0 0 45.007 45.007">
  <g id="Group_33" data-name="Group 33" transform="translate(0.5 0.5)">
    <path id="Path_1" data-name="Path 1" d="M177.641,63.009a14.545,14.545,0,0,1-9.712,9.715" transform="translate(-141.739 -36.823)" fill="none" stroke="#6b6d6c" stroke-linecap="round" stroke-miterlimit="10" stroke-width="1"/>
    <path id="Path_2" data-name="Path 2" d="M152.09,57.2a14.54,14.54,0,0,1,9.83-9.976" transform="translate(-144.058 -39.133)" fill="none" stroke="#6b6d6c" stroke-linecap="round" stroke-miterlimit="10" stroke-width="1"/>
    <circle id="Ellipse_1" data-name="Ellipse 1" cx="22.003" cy="22.003" r="22.003" transform="translate(0 0)" fill="none" stroke="#6b6d6c" stroke-linecap="round" stroke-miterlimit="10" stroke-width="1"/>
    <circle id="Ellipse_2" data-name="Ellipse 2" cx="5.774" cy="5.774" r="5.774" transform="translate(16.229 16.229)" fill="none" stroke="#6b6d6c" stroke-linecap="round" stroke-miterlimit="10" stroke-width="1"/>
    <path id="Path_3" data-name="Path 3" d="M155.657,57.428a10.412,10.412,0,0,1,6.794-6.718" transform="translate(-143.535 -38.623)" fill="none" stroke="#6b6d6c" stroke-linecap="round" stroke-miterlimit="10" stroke-width="1"/>
    <path id="Path_4" data-name="Path 4" d="M173.828,61.974a10.408,10.408,0,0,1-6.87,6.924" transform="translate(-141.881 -36.974)" fill="none" stroke="#6b6d6c" stroke-linecap="round" stroke-miterlimit="10" stroke-width="1"/>
    <path id="Path_5" data-name="Path 5" d="M148.346,56.407a19.048,19.048,0,0,1,12.881-12.952" transform="translate(-144.606 -39.685)" fill="none" stroke="#6b6d6c" stroke-linecap="round" stroke-miterlimit="10" stroke-width="1"/>
    <path id="Path_6" data-name="Path 6" d="M181.749,64.144a19.048,19.048,0,0,1-12.485,12.647" transform="translate(-141.543 -36.656)" fill="none" stroke="#6b6d6c" stroke-linecap="round" stroke-miterlimit="10" stroke-width="1"/>
  </g>
</svg>
