<?xml version="1.0" encoding="utf-8"?>
<!-- Generator: Adobe Illustrator 22.0.0, SVG Export Plug-In . SVG Version: 6.00 Build 0)  -->
<svg version="1.1" id="Layer_1" xmlns="http://www.w3.org/2000/svg" xmlns:xlink="http://www.w3.org/1999/xlink" x="0px" y="0px"
	 viewBox="0 0 37.3 37.6" style="enable-background:new 0 0 37.3 37.6;" xml:space="preserve">
<style type="text/css">
	.st0{fill:none;stroke:#6B6D6C;stroke-miterlimit:10;}
</style>
<g id="Group_32" transform="translate(0.5 0.5)">
	<path id="Rectangle_1" class="st0" d="M0.6,0h35c0.3,0,0.6,0.3,0.6,0.6c0,0,0,0,0,0v22.1c0,1.6-1.3,2.8-2.8,2.8H2.8
		c-1.6,0-2.8-1.3-2.8-2.8V0.6C0,0.3,0.3,0,0.6,0C0.6,0,0.6,0,0.6,0z"/>
	<path id="Path_7" class="st0" d="M0.1,19.7L0.1,19.7z"/>
	<path id="Rectangle_2" class="st0" d="M8.7,32.6h18.8c0.9,0,1.6,0.7,1.6,1.6v2.4l0,0h-22l0,0v-2.4C7.1,33.3,7.8,32.6,8.7,32.6z"/>
	<path id="Path_8" class="st0" d="M14.3,25.6v7h7.9v-7"/>
</g>
<line class="st0" x1="0.6" y1="20.2" x2="36.8" y2="20.2"/>
</svg>
